<svg width="48" height="48" viewBox="0 0 48 48" fill="none" xmlns="http://www.w3.org/2000/svg">
<g clip-path="url(#clip0_930_12)">
<path d="M48 12C48 8.8174 46.7357 5.76515 44.4853 3.51472C42.2348 1.26428 39.1826 0 36 0H12C8.8174 0 5.76515 1.26428 3.51472 3.51472C1.26428 5.76515 0 8.8174 0 12L0 36C0 39.1826 1.26428 42.2348 3.51472 44.4853C5.76515 46.7357 8.8174 48 12 48H36C39.1826 48 42.2348 46.7357 44.4853 44.4853C46.7357 42.2348 48 39.1826 48 36V12ZM36.7371 13.4126C37.0025 13.6215 37.224 13.8808 37.3889 14.1755C37.5538 14.4702 37.6589 14.7946 37.698 15.1301C37.7372 15.4656 37.7098 15.8054 37.6172 16.1303C37.5247 16.4551 37.3689 16.7584 37.1589 17.0229L23.6777 34.056C23.3506 34.5558 22.9226 34.9816 22.4211 35.3061C21.9196 35.6307 21.3558 35.8467 20.7659 35.9403C20.176 36.034 19.573 36.0032 18.9957 35.8499C18.4184 35.6966 17.8795 35.4242 17.4137 35.0503L11.2869 30.3223C10.7467 29.9058 10.3942 29.2918 10.3067 28.6154C10.2193 27.939 10.4041 27.2556 10.8206 26.7154C11.237 26.1753 11.851 25.8227 12.5274 25.7353C13.2038 25.6478 13.8873 25.8327 14.4274 26.2491L19.2617 29.9829C19.4416 30.1192 19.6678 30.1794 19.8916 30.1505C20.1154 30.1217 20.3189 30.006 20.4583 29.8286L33.144 13.8274C33.5666 13.2975 34.1817 12.9564 34.855 12.8787C35.5283 12.801 36.205 12.9929 36.7371 13.4126Z" fill="#29ABE2"/>
<path d="M37.3891 14.1754C37.2242 13.8807 37.0027 13.6214 36.7373 13.4125C36.2051 12.9928 35.5284 12.8009 34.8551 12.8786C34.1819 12.9564 33.5667 13.2975 33.1442 13.8274L20.4585 29.8285C20.3191 30.006 20.1155 30.1216 19.8917 30.1505C19.6679 30.1793 19.4417 30.1191 19.2619 29.9828L14.4276 26.2491C13.8875 25.8326 13.204 25.6478 12.5276 25.7352C11.8512 25.8227 11.2372 26.1752 10.8207 26.7154C10.4043 27.2555 10.2194 27.939 10.3069 28.6154C10.3943 29.2918 10.7469 29.9058 11.287 30.3222L17.4139 35.0502C17.8797 35.4242 18.4185 35.6965 18.9958 35.8498C19.5731 36.0031 20.1761 36.0339 20.7661 35.9403C21.356 35.8466 21.9198 35.6306 22.4213 35.3061C22.9228 34.9816 23.3508 34.5557 23.6779 34.0559L37.159 17.0228C37.3691 16.7584 37.5249 16.455 37.6174 16.1302C37.7099 15.8054 37.7374 15.4655 37.6982 15.13C37.659 14.7946 37.554 14.4702 37.3891 14.1754Z" fill="white"/>
</g>
<defs>
<clipPath id="clip0_930_12">
<rect width="48" height="48" fill="white"/>
</clipPath>
</defs>
</svg>
