<svg width="48" height="49" viewBox="0 0 48 49" fill="none" xmlns="http://www.w3.org/2000/svg">
<g clip-path="url(#clip0_930_16)">
<path d="M48 12.5C48 9.3174 46.7357 6.26515 44.4853 4.01472C42.2348 1.76428 39.1826 0.5 36 0.5H12C8.8174 0.5 5.76515 1.76428 3.51472 4.01472C1.26428 6.26515 0 9.3174 0 12.5L0 36.5C0 39.6826 1.26428 42.7348 3.51472 44.9853C5.76515 47.2357 8.8174 48.5 12 48.5H36C39.1826 48.5 42.2348 47.2357 44.4853 44.9853C46.7357 42.7348 48 39.6826 48 36.5V12.5ZM36.7371 13.9126C37.0025 14.1215 37.224 14.3808 37.3889 14.6755C37.5538 14.9702 37.6589 15.2946 37.698 15.6301C37.7372 15.9656 37.7098 16.3054 37.6172 16.6303C37.5247 16.9551 37.3689 17.2584 37.1589 17.5229L23.6777 34.556C23.3506 35.0558 22.9226 35.4816 22.4211 35.8061C21.9196 36.1307 21.3558 36.3467 20.7659 36.4403C20.176 36.534 19.573 36.5032 18.9957 36.3499C18.4184 36.1966 17.8795 35.9242 17.4137 35.5503L11.2869 30.8223C10.7467 30.4058 10.3942 29.7918 10.3067 29.1154C10.2193 28.439 10.4041 27.7556 10.8206 27.2154C11.237 26.6753 11.851 26.3227 12.5274 26.2353C13.2038 26.1478 13.8873 26.3327 14.4274 26.7491L19.2617 30.4829C19.4416 30.6192 19.6678 30.6794 19.8916 30.6505C20.1154 30.6217 20.3189 30.506 20.4583 30.3286L33.144 14.3274C33.5666 13.7975 34.1817 13.4564 34.855 13.3787C35.5283 13.301 36.205 13.4929 36.7371 13.9126Z" fill="#29ABE2"/>
<path d="M37.3891 14.6754C37.2242 14.3807 37.0027 14.1214 36.7373 13.9125C36.2051 13.4928 35.5284 13.3009 34.8551 13.3786C34.1819 13.4564 33.5667 13.7975 33.1442 14.3274L20.4585 30.3285C20.3191 30.506 20.1155 30.6216 19.8917 30.6505C19.6679 30.6793 19.4417 30.6191 19.2619 30.4828L14.4276 26.7491C13.8875 26.3326 13.204 26.1478 12.5276 26.2352C11.8512 26.3227 11.2372 26.6752 10.8207 27.2154C10.4043 27.7555 10.2194 28.439 10.3069 29.1154C10.3943 29.7918 10.7469 30.4058 11.287 30.8222L17.4139 35.5502C17.8797 35.9242 18.4185 36.1965 18.9958 36.3498C19.5731 36.5031 20.1761 36.5339 20.7661 36.4403C21.356 36.3466 21.9198 36.1306 22.4213 35.8061C22.9228 35.4816 23.3508 35.0557 23.6779 34.5559L37.159 17.5228C37.3691 17.2584 37.5249 16.955 37.6174 16.6302C37.7099 16.3054 37.7374 15.9655 37.6982 15.63C37.659 15.2946 37.554 14.9702 37.3891 14.6754Z" fill="white"/>
</g>
<defs>
<clipPath id="clip0_930_16">
<rect width="48" height="48" fill="white" transform="translate(0 0.5)"/>
</clipPath>
</defs>
</svg>
