<svg width="44" height="44" viewBox="0 0 44 44" fill="none" xmlns="http://www.w3.org/2000/svg">
<path d="M34.8332 7.33333H9.1665C7.70781 7.33333 6.30887 7.91279 5.27742 8.94424C4.24597 9.97569 3.6665 11.3746 3.6665 12.8333V31.1667C3.6665 32.6253 4.24597 34.0243 5.27742 35.0557C6.30887 36.0872 7.70781 36.6667 9.1665 36.6667H34.8332C36.2919 36.6667 37.6908 36.0872 38.7223 35.0557C39.7537 34.0243 40.3332 32.6253 40.3332 31.1667V12.8333C40.3332 11.3746 39.7537 9.97569 38.7223 8.94424C37.6908 7.91279 36.2919 7.33333 34.8332 7.33333ZM34.8332 11L22.9165 19.195C22.6378 19.3559 22.3217 19.4406 21.9998 19.4406C21.678 19.4406 21.3619 19.3559 21.0832 19.195L9.1665 11H34.8332Z" fill="white"/>
</svg>
