<svg width="44" height="44" viewBox="0 0 44 44" fill="none" xmlns="http://www.w3.org/2000/svg">
<path d="M34.8334 7.33333H9.16675C7.70806 7.33333 6.30911 7.91279 5.27766 8.94424C4.24621 9.97569 3.66675 11.3746 3.66675 12.8333V31.1667C3.66675 32.6253 4.24621 34.0243 5.27766 35.0557C6.30911 36.0872 7.70806 36.6667 9.16675 36.6667H34.8334C36.2921 36.6667 37.6911 36.0872 38.7225 35.0557C39.754 34.0243 40.3334 32.6253 40.3334 31.1667V12.8333C40.3334 11.3746 39.754 9.97569 38.7225 8.94424C37.6911 7.91279 36.2921 7.33333 34.8334 7.33333ZM34.8334 11L22.9168 19.195C22.638 19.3559 22.3219 19.4406 22.0001 19.4406C21.6783 19.4406 21.3621 19.3559 21.0834 19.195L9.16675 11H34.8334Z" fill="white"/>
</svg>
