<svg width="44" height="44" viewBox="0 0 44 44" fill="none" xmlns="http://www.w3.org/2000/svg">
<path d="M12.1065 29.6019C11.9345 29.4301 11.7014 29.3335 11.4584 29.3335C11.2153 29.3335 10.9822 29.4301 10.8103 29.6019L9.62503 30.7872L8.43978 29.6019C8.35522 29.5144 8.25407 29.4445 8.14224 29.3965C8.0304 29.3485 7.91012 29.3232 7.7884 29.3221C7.66669 29.3211 7.54598 29.3442 7.43333 29.3903C7.32067 29.4364 7.21832 29.5045 7.13225 29.5906C7.04619 29.6766 6.97812 29.779 6.93203 29.8916C6.88594 30.0043 6.86275 30.125 6.8638 30.2467C6.86486 30.3684 6.89015 30.4887 6.93819 30.6005C6.98623 30.7124 7.05607 30.8135 7.14362 30.8981L8.32887 32.0833L7.14362 33.2686C7.05607 33.3532 6.98623 33.4543 6.93819 33.5661C6.89015 33.678 6.86486 33.7983 6.8638 33.92C6.86275 34.0417 6.88594 34.1624 6.93203 34.275C6.97812 34.3877 7.04619 34.4901 7.13225 34.5761C7.21832 34.6622 7.32067 34.7303 7.43333 34.7763C7.54598 34.8224 7.66669 34.8456 7.7884 34.8446C7.91012 34.8435 8.0304 34.8182 8.14224 34.7702C8.25407 34.7221 8.35522 34.6523 8.43978 34.5648L9.62503 33.3795L10.8103 34.5648C10.9832 34.7317 11.2147 34.8241 11.4551 34.822C11.6954 34.82 11.9253 34.7236 12.0953 34.5536C12.2652 34.3836 12.3616 34.1537 12.3637 33.9134C12.3658 33.673 12.2734 33.4415 12.1065 33.2686L10.9212 32.0833L12.1065 30.8981C12.2783 30.7262 12.3748 30.4931 12.3748 30.25C12.3748 30.0069 12.2783 29.7738 12.1065 29.6019ZM20.3565 29.6019C20.1846 29.4301 19.9514 29.3335 19.7084 29.3335C19.4653 29.3335 19.2322 29.4301 19.0603 29.6019L17.875 30.7872L16.6898 29.6019C16.5169 29.4349 16.2853 29.3426 16.045 29.3446C15.8047 29.3467 15.5747 29.4431 15.4048 29.6131C15.2348 29.783 15.1384 30.013 15.1363 30.2533C15.1342 30.4937 15.2266 30.7252 15.3936 30.8981L16.5789 32.0833L15.3936 33.2686C15.3061 33.3532 15.2362 33.4543 15.1882 33.5661C15.1402 33.678 15.1149 33.7983 15.1138 33.92C15.1127 34.0417 15.1359 34.1624 15.182 34.275C15.2281 34.3877 15.2962 34.4901 15.3823 34.5761C15.4683 34.6622 15.5707 34.7303 15.6833 34.7763C15.796 34.8224 15.9167 34.8456 16.0384 34.8446C16.1601 34.8435 16.2804 34.8182 16.3922 34.7702C16.5041 34.7221 16.6052 34.6523 16.6898 34.5648L17.875 33.3795L19.0603 34.5648C19.2332 34.7317 19.4647 34.8241 19.7051 34.822C19.9454 34.82 20.1753 34.7236 20.3453 34.5536C20.5152 34.3836 20.6116 34.1537 20.6137 33.9134C20.6158 33.673 20.5234 33.4415 20.3565 33.2686L19.1712 32.0833L20.3565 30.8981C20.5283 30.7262 20.6248 30.4931 20.6248 30.25C20.6248 30.0069 20.5283 29.7738 20.3565 29.6019ZM28.6065 29.6019C28.4346 29.4301 28.2014 29.3335 27.9584 29.3335C27.7153 29.3335 27.4822 29.4301 27.3103 29.6019L26.125 30.7872L24.9398 29.6019C24.7669 29.4349 24.5353 29.3426 24.295 29.3446C24.0547 29.3467 23.8247 29.4431 23.6548 29.6131C23.4848 29.783 23.3884 30.013 23.3863 30.2533C23.3842 30.4937 23.4766 30.7252 23.6436 30.8981L24.8289 32.0833L23.6436 33.2686C23.5561 33.3532 23.4862 33.4543 23.4382 33.5661C23.3902 33.678 23.3649 33.7983 23.3638 33.92C23.3627 34.0417 23.3859 34.1624 23.432 34.275C23.4781 34.3877 23.5462 34.4901 23.6323 34.5761C23.7183 34.6622 23.8207 34.7303 23.9333 34.7763C24.046 34.8224 24.1667 34.8456 24.2884 34.8446C24.4101 34.8435 24.5304 34.8182 24.6422 34.7702C24.7541 34.7221 24.8552 34.6523 24.9398 34.5648L26.125 33.3795L27.3103 34.5648C27.4832 34.7317 27.7147 34.8241 27.9551 34.822C28.1954 34.82 28.4253 34.7236 28.5953 34.5536C28.7652 34.3836 28.8616 34.1537 28.8637 33.9134C28.8658 33.673 28.7734 33.4415 28.6065 33.2686L27.4212 32.0833L28.6065 30.8981C28.7783 30.7262 28.8748 30.4931 28.8748 30.25C28.8748 30.0069 28.7783 29.7738 28.6065 29.6019ZM35.6712 32.0833L36.8565 30.8981C37.0234 30.7252 37.1158 30.4937 37.1137 30.2533C37.1116 30.013 37.0152 29.783 36.8453 29.6131C36.6753 29.4431 36.4454 29.3467 36.2051 29.3446C35.9647 29.3426 35.7332 29.4349 35.5603 29.6019L34.375 30.7872L33.1898 29.6019C33.0169 29.4349 32.7853 29.3426 32.545 29.3446C32.3047 29.3467 32.0747 29.4431 31.9048 29.6131C31.7348 29.783 31.6384 30.013 31.6363 30.2533C31.6342 30.4937 31.7266 30.7252 31.8936 30.8981L33.0789 32.0833L31.8936 33.2686C31.8061 33.3532 31.7362 33.4543 31.6882 33.5661C31.6402 33.678 31.6149 33.7983 31.6138 33.92C31.6127 34.0417 31.6359 34.1624 31.682 34.275C31.7281 34.3877 31.7962 34.4901 31.8823 34.5761C31.9683 34.6622 32.0707 34.7303 32.1833 34.7763C32.296 34.8224 32.4167 34.8456 32.5384 34.8446C32.6601 34.8435 32.7804 34.8182 32.8922 34.7702C33.0041 34.7221 33.1052 34.6523 33.1898 34.5648L34.375 33.3795L35.5603 34.5648C35.7332 34.7317 35.9647 34.8241 36.2051 34.822C36.4454 34.82 36.6753 34.7236 36.8453 34.5536C37.0152 34.3836 37.1116 34.1537 37.1137 33.9134C37.1158 33.673 37.0234 33.4415 36.8565 33.2686L35.6712 32.0833ZM11.4584 36.6667H7.7917C7.54859 36.6667 7.31543 36.7633 7.14352 36.9352C6.97161 37.1071 6.87503 37.3402 6.87503 37.5833C6.87503 37.8265 6.97161 38.0596 7.14352 38.2315C7.31543 38.4034 7.54859 38.5 7.7917 38.5H11.4584C11.7015 38.5 11.9346 38.4034 12.1065 38.2315C12.2785 38.0596 12.375 37.8265 12.375 37.5833C12.375 37.3402 12.2785 37.1071 12.1065 36.9352C11.9346 36.7633 11.7015 36.6667 11.4584 36.6667ZM19.7084 36.6667H16.0417C15.7986 36.6667 15.5654 36.7633 15.3935 36.9352C15.2216 37.1071 15.125 37.3402 15.125 37.5833C15.125 37.8265 15.2216 38.0596 15.3935 38.2315C15.5654 38.4034 15.7986 38.5 16.0417 38.5H19.7084C19.9515 38.5 20.1846 38.4034 20.3565 38.2315C20.5285 38.0596 20.625 37.8265 20.625 37.5833C20.625 37.3402 20.5285 37.1071 20.3565 36.9352C20.1846 36.7633 19.9515 36.6667 19.7084 36.6667ZM27.9584 36.6667H24.2917C24.0486 36.6667 23.8154 36.7633 23.6435 36.9352C23.4716 37.1071 23.375 37.3402 23.375 37.5833C23.375 37.8265 23.4716 38.0596 23.6435 38.2315C23.8154 38.4034 24.0486 38.5 24.2917 38.5H27.9584C28.2015 38.5 28.4346 38.4034 28.6066 38.2315C28.7785 38.0596 28.875 37.8265 28.875 37.5833C28.875 37.3402 28.7785 37.1071 28.6066 36.9352C28.4346 36.7633 28.2015 36.6667 27.9584 36.6667ZM36.2084 36.6667H32.5417C32.2986 36.6667 32.0654 36.7633 31.8935 36.9352C31.7216 37.1071 31.625 37.3402 31.625 37.5833C31.625 37.8265 31.7216 38.0596 31.8935 38.2315C32.0654 38.4034 32.2986 38.5 32.5417 38.5H36.2084C36.4515 38.5 36.6846 38.4034 36.8565 38.2315C37.0285 38.0596 37.125 37.8265 37.125 37.5833C37.125 37.3402 37.0285 37.1071 36.8565 36.9352C36.6846 36.7633 36.4515 36.6667 36.2084 36.6667ZM29.8375 14.3H28.1417V12.4667C28.1417 10.8378 27.4946 9.27565 26.3428 8.12386C25.1911 6.97208 23.6289 6.32501 22 6.32501C20.3712 6.32501 18.809 6.97208 17.6572 8.12386C16.5054 9.27565 15.8584 10.8378 15.8584 12.4667V14.3H14.1625C14.0418 14.2988 13.9221 14.3217 13.8103 14.3673C13.6985 14.4129 13.597 14.4804 13.5116 14.5658C13.4263 14.6511 13.3588 14.7527 13.3131 14.8644C13.2675 14.9762 13.2446 15.096 13.2459 15.2167V23.8333C13.2464 24.5625 13.5362 25.2617 14.0519 25.7774C14.5675 26.293 15.2667 26.5829 15.9959 26.5833H28.0042C28.7334 26.5829 29.4326 26.293 29.9482 25.7774C30.4638 25.2617 30.7537 24.5625 30.7542 23.8333V15.2167C30.7554 15.096 30.7326 14.9762 30.6869 14.8644C30.6413 14.7527 30.5738 14.6511 30.4884 14.5658C30.4031 14.4804 30.3015 14.4129 30.1898 14.3673C30.078 14.3217 29.9583 14.2988 29.8375 14.3ZM17.6917 12.4667C17.6917 11.324 18.1456 10.2282 18.9536 9.42023C19.7616 8.61226 20.8574 8.15834 22 8.15834C23.1427 8.15834 24.2385 8.61226 25.0465 9.42023C25.8545 10.2282 26.3084 11.324 26.3084 12.4667V14.3H17.6917V12.4667Z" fill="white" fill-opacity="0.51"/>
</svg>
